<svg xmlns="http://www.w3.org/2000/svg">
	<symbol id="git" viewBox="0 0 58 58">
		<g>
			<path
				d="M45.9167 0H12.0833C5.41092 0 0 5.41092 0 12.0833V45.9167C0 52.5891 5.41092 58 12.0833 58H45.9167C52.5915 58 58 52.5891 58 45.9167V12.0833C58 5.41092 52.5915 0 45.9167 0ZM35.1238 47.3425C34.1451 47.531 33.8333 46.9293 33.8333 46.4145V41.1099C33.8333 39.3047 33.2002 38.1302 32.5042 37.5308C36.8107 37.0523 41.3347 35.4163 41.3347 27.9923C41.3347 25.8801 40.5807 24.1546 39.3458 22.8037C39.5439 22.3155 40.2061 20.3483 39.1548 17.6876C39.1548 17.6876 37.5333 17.168 33.843 19.6693C32.2963 19.2343 30.6433 19.024 29 19.0143C27.3567 19.0216 25.7037 19.2343 24.1594 19.6644C20.4668 17.1632 18.8428 17.6828 18.8428 17.6828C17.7939 20.3459 18.4561 22.3107 18.6567 22.8013C17.4193 24.1546 16.6653 25.8777 16.6653 27.9898C16.6653 35.3945 21.1773 37.0548 25.4741 37.5453C24.9207 38.0287 24.4204 38.8793 24.2464 40.1312C23.142 40.6242 20.3459 41.4773 18.6204 38.5217C18.6204 38.5217 17.5982 36.6657 15.6552 36.5279C15.6552 36.5279 13.7702 36.5038 15.5223 37.7048C15.5223 37.7048 16.791 38.2993 17.6707 40.5323C17.6707 40.5323 18.7896 43.9833 24.1667 42.8137V46.4121C24.1667 46.922 23.8549 47.5213 22.8907 47.3425C15.2057 44.7881 9.66667 37.5405 9.66667 29C9.66667 18.3208 18.3232 9.66667 29 9.66667C39.6768 9.66667 48.3333 18.3208 48.3333 29C48.3333 37.5381 42.8016 44.7833 35.1238 47.3425V47.3425Z"
				fill="" />
			<defs>
			</defs>
		</g>
	</symbol>
	<symbol id="linked" viewBox="0 0 58 58">
		<g>
			<path
				d="M45.9167 0H12.0833C5.41092 0 0 5.41092 0 12.0833V45.9167C0 52.5891 5.41092 58 12.0833 58H45.9167C52.5915 58 58 52.5891 58 45.9167V12.0833C58 5.41092 52.5915 0 45.9167 0ZM19.3333 45.9167H12.0833V19.3333H19.3333V45.9167ZM15.7083 16.269C13.3738 16.269 11.4792 14.3598 11.4792 12.006C11.4792 9.65217 13.3738 7.743 15.7083 7.743C18.0428 7.743 19.9375 9.65217 19.9375 12.006C19.9375 14.3598 18.0453 16.269 15.7083 16.269ZM48.3333 45.9167H41.0833V32.3737C41.0833 24.2343 31.4167 24.8506 31.4167 32.3737V45.9167H24.1667V19.3333H31.4167V23.5988C34.7903 17.3493 48.3333 16.8877 48.3333 29.5824V45.9167Z"
				fill="" />
			<defs>
			</defs>
		</g>
	</symbol>
	<symbol id="inst" viewBox="0 0 21 21">
		<g>
			<path
				d="M14.4375 0H6.5625C2.93869 0 0 2.93869 0 6.5625V14.4375C0 18.0613 2.93869 21 6.5625 21H14.4375C18.0613 21 21 18.0613 21 14.4375V6.5625C21 2.93869 18.0613 0 14.4375 0ZM19.0312 14.4375C19.0312 16.9706 16.9706 19.0312 14.4375 19.0312H6.5625C4.02938 19.0312 1.96875 16.9706 1.96875 14.4375V6.5625C1.96875 4.02938 4.02938 1.96875 6.5625 1.96875H14.4375C16.9706 1.96875 19.0312 4.02938 19.0312 6.5625V14.4375Z"
				fill="" />
			<path
				d="M10.5 5.25C7.60069 5.25 5.25 7.60069 5.25 10.5C5.25 13.3993 7.60069 15.75 10.5 15.75C13.3993 15.75 15.75 13.3993 15.75 10.5C15.75 7.60069 13.3993 5.25 10.5 5.25ZM10.5 13.7812C8.69138 13.7812 7.21875 12.3086 7.21875 10.5C7.21875 8.69006 8.69138 7.21875 10.5 7.21875C12.3086 7.21875 13.7812 8.69006 13.7812 10.5C13.7812 12.3086 12.3086 13.7812 10.5 13.7812Z"
				fill="" />
			<path
				d="M16.1439 5.55586C16.5303 5.55586 16.8435 5.24266 16.8435 4.8563C16.8435 4.46994 16.5303 4.15674 16.1439 4.15674C15.7575 4.15674 15.4443 4.46994 15.4443 4.8563C15.4443 5.24266 15.7575 5.55586 16.1439 5.55586Z"
				fill="" />
		</g>
	</symbol>
	<symbol id="close" viewBox="0 0 50 50">
		<g>
<path style="fill:#FD3018;" d="M437.02,74.98C388.667,26.629,324.38,0,256,0S123.333,26.629,74.981,74.98
	C26.629,123.332,0,187.621,0,256c0,68.381,26.629,132.668,74.98,181.02C123.332,485.371,187.619,512,256,512
	c68.38,0,132.667-26.629,181.02-74.98C485.371,388.668,512,324.381,512,256S485.371,123.332,437.02,74.98z"/>
<path style="fill:#E61E14;" d="M512,256c0-68.381-26.629-132.668-74.98-181.02C388.667,26.629,324.38,0,256,0v512
	c68.381,0,132.667-26.629,181.02-74.98C485.371,388.668,512,324.381,512,256z"/>
<path style="fill:#F2F2F2;" d="M277.213,256.002l91.641-91.641c5.857-5.857,5.857-15.355,0-21.213
	c-5.857-5.857-15.355-5.857-21.213,0L256,234.789l-91.641-91.641c-5.857-5.857-15.355-5.857-21.213,0
	c-5.857,5.857-5.857,15.355,0,21.213l91.641,91.641l-91.641,91.641c-5.857,5.857-5.857,15.355,0,21.213
	c2.929,2.928,6.768,4.392,10.606,4.392c3.839,0,7.678-1.465,10.606-4.392L256,277.215l91.641,91.641
	c2.929,2.928,6.768,4.392,10.607,4.392s7.678-1.465,10.606-4.392c5.857-5.858,5.857-15.355,0-21.213L277.213,256.002z"/>
<path style="fill:#D9D9D9;" d="M277.213,256.002l91.641-91.641c5.857-5.857,5.857-15.355,0-21.213
	c-5.857-5.857-15.355-5.857-21.213,0L256,234.789v42.426l91.641,91.641c2.929,2.928,6.768,4.392,10.607,4.392
	s7.678-1.465,10.606-4.392c5.857-5.858,5.857-15.355,0-21.213L277.213,256.002z"/>
<g>
</g>
<g>
</g>
<g>
</g>
<g>
</g>
<g>
</g>
<g>
</g>
<g>
</g>
<g>
</g>
<g>
</g>
<g>
</g>
<g>
</g>
<g>
</g>
<g>
</g>
<g>
</g>
<g>
</g>
</g>
	</symbol>
</svg>