<svg width="1920" height="1080" viewBox="0 0 1920 1080" fill="none" xmlns="http://www.w3.org/2000/svg">
<g id="SVGGuy">
<rect width="1920" height="1080" fill="white"/>
<path id="Vector 1" d="M1252.47 505.339C1214.26 325.371 1331.91 290.62 1395.52 295.741C1387.13 301.544 1411.17 307.006 1574.44 282.428C1778.53 251.705 1838.4 27.0868 1874.05 2.84991C1909.69 -21.387 1911.33 114.476 1874.05 201.524C1836.77 288.572 1841.2 413.512 1896.41 614.575C1951.63 815.639 1751.97 916 1713.06 970.619C1674.16 1025.24 1462.61 1060.06 1370.35 916C1278.1 771.945 1300.23 730.298 1252.47 505.339Z" fill="url(#paint0_linear)" fill-opacity="0.91"/>
<g id="dev 1" clip-path="url(#clip0)">
<path id="Vector" d="M1553.92 916.636C1553.92 916.636 1549.16 918.266 1541.42 920.576C1524.31 925.706 1492.65 934.216 1465.82 935.916C1442.72 937.396 1423.2 933.836 1419.63 918.766C1418.1 912.286 1420.27 906.956 1425 902.576C1439.12 889.486 1476 884.796 1505.25 883.186C1513.51 882.736 1521.15 882.526 1527.51 882.446C1538.31 882.306 1545.39 882.526 1545.39 882.526L1545.56 883.186L1553.92 916.636Z" fill="#A0616A"/>
<path id="Vector_2" d="M1473.99 964.586C1455.61 987.346 1379.73 939.666 1353.19 921.886C1347.41 918.016 1343.97 915.566 1343.97 915.566L1368.25 883.186L1375.94 872.936C1375.94 872.936 1382.82 876.586 1392.99 882.526C1393.36 882.746 1393.73 882.966 1394.11 883.186C1402.88 888.336 1413.89 895.066 1425 902.576C1440.33 912.946 1455.83 924.776 1465.82 935.916C1475.59 946.806 1480.08 957.036 1473.99 964.586Z" fill="#A0616A"/>
<g id="body">
<path id="Vector_3" d="M1472.92 483.941C1513.53 483.941 1546.46 451.018 1546.46 410.405C1546.46 369.792 1513.53 336.869 1472.92 336.869C1432.31 336.869 1399.39 369.792 1399.39 410.405C1399.39 451.018 1432.31 483.941 1472.92 483.941Z" fill="#A0616A"/>
<path id="Vector_4" d="M1418.04 447.173C1418.04 447.173 1431.89 551.616 1410.58 563.339C1389.26 575.062 1537.4 576.128 1537.4 576.128C1537.4 576.128 1504.36 485.54 1519.28 457.83L1418.04 447.173Z" fill="#A0616A"/>
<path id="Vector_5" d="M1645.57 576.656L1633.25 632.756L1607.2 751.446L1606.42 757.946L1597.43 833.196L1591.45 883.186L1587.44 916.766C1563.06 929.296 1545.39 937.946 1545.39 937.946C1545.39 937.946 1543.87 930.326 1541.42 920.576C1524.31 925.706 1492.65 934.216 1465.82 935.916C1475.59 946.806 1480.08 957.036 1473.99 964.586C1455.61 987.346 1379.73 939.666 1353.19 921.886C1352.57 926.143 1352.34 930.447 1352.49 934.746L1332.18 919.126L1334.19 883.186L1337.58 822.376L1341.84 746.116C1340.5 742.851 1339.37 739.5 1338.47 736.086C1332.25 713.966 1324.7 669.796 1318.91 632.756C1314.25 602.946 1310.75 577.756 1310.01 572.396C1309.91 571.696 1309.86 571.336 1309.86 571.336L1422.29 521.656C1430.28 540.186 1467.59 545.756 1467.59 545.756C1498.5 543.626 1522.73 527.326 1522.73 527.326L1645.57 576.656Z" fill="#D0CDE1"/>
<path id="Vector_6" d="M1411.75 340.847L1398 335.342C1398 335.342 1426.75 303.691 1466.74 306.444L1455.49 294.059C1455.49 294.059 1482.99 283.05 1507.99 311.948C1521.13 327.139 1536.34 344.996 1545.82 365.111H1560.54L1554.4 378.643L1575.91 392.175L1553.83 389.744C1555.14 397.154 1555.35 404.719 1554.43 412.189C1553.48 419.661 1549.67 426.473 1543.79 431.187V431.187C1543.79 431.187 1526.74 395.891 1526.74 390.387V404.148C1526.74 404.148 1512.99 391.763 1512.99 383.506L1505.49 393.139L1501.74 378.002L1455.49 393.139L1462.99 380.754L1434.25 384.883L1445.5 369.745C1445.5 369.745 1413 387.635 1411.75 402.772C1410.5 417.909 1400.98 432.253 1400.98 432.253C1400.98 432.253 1375.5 361.488 1411.75 340.847Z" fill="#2F2E41"/>
<path id="Vector_7" d="M1725.5 834.566C1718.01 842.686 1699.45 854.916 1676.95 868.156C1668.58 873.076 1659.67 878.146 1650.58 883.186C1628.89 895.216 1606.18 907.136 1587.44 916.766C1563.06 929.296 1545.39 937.946 1545.39 937.946C1545.39 937.946 1543.87 930.326 1541.42 920.576C1538.14 907.526 1533.2 890.656 1528.05 883.186C1527.87 882.926 1527.69 882.686 1527.51 882.446C1526.01 880.476 1524.5 879.326 1523.01 879.326L1597.43 833.196L1629.59 813.256L1606.42 757.946L1577.36 688.566L1594.9 632.756L1612.53 576.656H1645.57C1645.57 576.656 1656.51 600.536 1670.5 633.836C1672.59 638.816 1674.75 644.006 1676.95 649.366C1705.73 719.366 1741.61 817.116 1725.5 834.566Z" fill="#D0CDE1"/>
<path id="Vector_8" d="M1392.99 882.526C1390.28 882.516 1387.57 882.736 1384.89 883.186C1361.9 887.136 1355.12 907.946 1353.19 921.886C1352.57 926.143 1352.34 930.447 1352.49 934.746L1332.18 919.126L1324.78 913.436C1306.97 907.226 1291.1 896.196 1277.34 883.186C1265.4 871.7 1254.7 859.001 1245.39 845.296C1236.12 831.788 1227.86 817.616 1220.67 802.896C1218.66 798.788 1217.59 794.29 1217.51 789.719C1217.44 785.148 1218.37 780.617 1220.24 776.446L1245.39 720.396L1282.15 638.476C1282.42 636.526 1282.72 634.619 1283.04 632.756C1290.33 590.956 1309.86 572.396 1309.86 572.396H1324.78L1334.76 632.756L1347.16 707.746L1338.47 736.086L1318.39 801.536L1337.58 822.376L1392.99 882.526Z" fill="#D0CDE1"/>
<path id="Vector_9" d="M1409.88 707.806L1422.63 722.687C1427.37 721.783 1432.32 720.721 1437.42 719.529L1433.75 707.806L1442.71 718.256C1496.71 704.976 1563.64 679.155 1563.64 679.155C1563.64 679.155 1491.38 684.453 1437.43 672.666C1413.56 667.451 1389 679.284 1379.2 701.669C1373.51 714.679 1374.4 725.951 1394.6 725.951C1401.42 725.835 1408.22 725.195 1414.95 724.037L1409.88 707.806Z" fill="#6C63FF"/>
</g>
<path id="Vector_10" d="M1700.65 952.386V958.456C1700.65 960.122 1700.35 961.774 1699.74 963.326C1699.47 964.018 1699.15 964.687 1698.77 965.326C1697.58 967.327 1695.89 968.983 1693.86 970.133C1691.84 971.283 1689.55 971.887 1687.22 971.886H1240.67C1238.34 971.887 1236.05 971.283 1234.03 970.133C1232 968.983 1230.31 967.327 1229.12 965.326C1228.74 964.687 1228.42 964.018 1228.15 963.326C1227.55 961.774 1227.24 960.122 1227.24 958.456V952.386C1227.24 950.622 1227.59 948.876 1228.26 947.246C1228.94 945.616 1229.93 944.136 1231.17 942.889C1232.42 941.641 1233.9 940.652 1235.53 939.977C1237.16 939.303 1238.91 938.956 1240.67 938.956H1266.41V936.126C1266.41 936.052 1266.42 935.98 1266.45 935.912C1266.48 935.844 1266.52 935.782 1266.57 935.73C1266.63 935.678 1266.69 935.636 1266.76 935.608C1266.82 935.58 1266.9 935.566 1266.97 935.566H1280.4C1280.47 935.566 1280.55 935.58 1280.61 935.608C1280.68 935.636 1280.74 935.678 1280.8 935.73C1280.85 935.782 1280.89 935.844 1280.92 935.912C1280.95 935.98 1280.96 936.052 1280.96 936.126V938.956H1289.35V936.126C1289.35 936.052 1289.36 935.98 1289.39 935.912C1289.42 935.844 1289.46 935.782 1289.51 935.73C1289.57 935.678 1289.63 935.636 1289.7 935.608C1289.76 935.58 1289.84 935.566 1289.91 935.566H1303.34C1303.41 935.566 1303.49 935.58 1303.55 935.608C1303.62 935.636 1303.68 935.678 1303.74 935.73C1303.79 935.782 1303.83 935.844 1303.86 935.912C1303.89 935.98 1303.9 936.052 1303.9 936.126V938.956H1312.3V936.126C1312.3 936.052 1312.31 935.98 1312.34 935.912C1312.37 935.844 1312.41 935.782 1312.46 935.73C1312.52 935.678 1312.58 935.636 1312.65 935.608C1312.71 935.58 1312.79 935.566 1312.86 935.566H1326.29C1326.36 935.566 1326.44 935.58 1326.5 935.608C1326.57 935.636 1326.63 935.678 1326.69 935.73C1326.74 935.782 1326.78 935.844 1326.81 935.912C1326.84 935.98 1326.85 936.052 1326.85 936.126V938.956H1335.24V936.126C1335.24 936.052 1335.25 935.98 1335.28 935.912C1335.31 935.844 1335.35 935.782 1335.4 935.73C1335.46 935.678 1335.52 935.636 1335.59 935.608C1335.65 935.58 1335.73 935.566 1335.8 935.566H1349.23C1349.3 935.566 1349.38 935.58 1349.44 935.608C1349.51 935.636 1349.57 935.678 1349.63 935.73C1349.68 935.782 1349.72 935.844 1349.75 935.912C1349.78 935.98 1349.79 936.052 1349.79 936.126V938.956H1358.18V936.126C1358.18 936.052 1358.19 935.98 1358.22 935.912C1358.25 935.844 1358.29 935.782 1358.34 935.73C1358.4 935.678 1358.46 935.636 1358.53 935.608C1358.59 935.58 1358.67 935.566 1358.74 935.566H1372.17C1372.24 935.566 1372.32 935.58 1372.38 935.608C1372.45 935.636 1372.51 935.678 1372.57 935.73C1372.62 935.782 1372.66 935.844 1372.69 935.912C1372.72 935.98 1372.73 936.052 1372.73 936.126V938.956H1381.13V936.126C1381.13 936.052 1381.14 935.98 1381.17 935.912C1381.2 935.844 1381.24 935.782 1381.29 935.73C1381.35 935.678 1381.41 935.636 1381.48 935.608C1381.54 935.58 1381.62 935.566 1381.69 935.566H1395.12C1395.19 935.566 1395.27 935.58 1395.33 935.608C1395.4 935.636 1395.46 935.678 1395.52 935.73C1395.57 935.782 1395.61 935.844 1395.64 935.912C1395.67 935.98 1395.68 936.052 1395.68 936.126V938.956H1404.07V936.126C1404.07 936.052 1404.08 935.98 1404.11 935.912C1404.14 935.844 1404.18 935.782 1404.23 935.73C1404.29 935.678 1404.35 935.636 1404.42 935.608C1404.48 935.58 1404.56 935.566 1404.63 935.566H1509.83C1509.9 935.566 1509.98 935.58 1510.04 935.608C1510.11 935.636 1510.17 935.678 1510.23 935.73C1510.28 935.782 1510.32 935.844 1510.35 935.912C1510.38 935.98 1510.39 936.052 1510.39 936.126V938.956H1518.79V936.126C1518.79 936.052 1518.8 935.98 1518.83 935.912C1518.86 935.844 1518.9 935.782 1518.95 935.73C1519.01 935.678 1519.07 935.636 1519.14 935.608C1519.2 935.58 1519.28 935.566 1519.35 935.566H1532.78C1532.93 935.567 1533.07 935.627 1533.17 935.732C1533.28 935.836 1533.34 935.978 1533.34 936.126V938.956H1541.73V936.126C1541.73 936.052 1541.74 935.98 1541.77 935.912C1541.8 935.844 1541.84 935.782 1541.89 935.73C1541.95 935.678 1542.01 935.636 1542.08 935.608C1542.14 935.58 1542.22 935.566 1542.29 935.566H1555.72C1555.79 935.566 1555.87 935.58 1555.93 935.608C1556 935.636 1556.06 935.678 1556.12 935.73C1556.17 935.782 1556.21 935.844 1556.24 935.912C1556.27 935.98 1556.28 936.052 1556.28 936.126V938.956H1564.67V936.126C1564.67 936.052 1564.68 935.98 1564.71 935.912C1564.74 935.844 1564.78 935.782 1564.83 935.73C1564.89 935.678 1564.95 935.636 1565.02 935.608C1565.08 935.58 1565.16 935.566 1565.23 935.566H1578.66C1578.73 935.566 1578.81 935.58 1578.87 935.608C1578.94 935.636 1579 935.678 1579.06 935.73C1579.11 935.782 1579.15 935.844 1579.18 935.912C1579.21 935.98 1579.22 936.052 1579.22 936.126V938.956H1587.62V936.126C1587.62 936.052 1587.63 935.98 1587.66 935.912C1587.69 935.844 1587.73 935.782 1587.78 935.73C1587.84 935.678 1587.9 935.636 1587.97 935.608C1588.03 935.58 1588.11 935.566 1588.18 935.566H1601.61C1601.76 935.568 1601.9 935.628 1602 935.733C1602.1 935.838 1602.16 935.979 1602.16 936.126V938.956H1610.56V936.126C1610.56 936.052 1610.57 935.98 1610.6 935.912C1610.63 935.844 1610.67 935.782 1610.72 935.73C1610.78 935.678 1610.84 935.636 1610.91 935.608C1610.97 935.58 1611.05 935.566 1611.12 935.566H1624.55C1624.62 935.566 1624.7 935.58 1624.76 935.608C1624.83 935.636 1624.89 935.678 1624.95 935.73C1625 935.782 1625.04 935.844 1625.07 935.912C1625.1 935.98 1625.11 936.052 1625.11 936.126V938.956H1633.5V936.126C1633.5 936.052 1633.51 935.98 1633.54 935.912C1633.57 935.844 1633.61 935.782 1633.66 935.73C1633.72 935.678 1633.78 935.636 1633.85 935.608C1633.91 935.58 1633.99 935.566 1634.06 935.566H1647.49C1647.56 935.566 1647.64 935.58 1647.7 935.608C1647.77 935.636 1647.83 935.678 1647.89 935.73C1647.94 935.782 1647.98 935.844 1648.01 935.912C1648.04 935.98 1648.05 936.052 1648.05 936.126V938.956H1687.22C1688.98 938.956 1690.73 939.303 1692.36 939.977C1693.99 940.652 1695.47 941.641 1696.72 942.889C1697.96 944.136 1698.95 945.616 1699.63 947.246C1700.3 948.876 1700.65 950.622 1700.65 952.386V952.386Z" fill="#FF5050"/>
<path id="Vector_11" d="M1830.5 963.326H1097.5V965.326H1830.5V963.326Z" fill="#3F3D56"/>
<path id="Vector_12" d="M1664.69 696.757H1498.25V693.326H1422.78V696.757H1255.65C1252.66 696.757 1249.8 697.943 1247.69 700.054C1245.58 702.166 1244.39 705.029 1244.39 708.015V935.927C1244.39 938.913 1245.58 941.776 1247.69 943.888C1249.8 945.999 1252.66 947.185 1255.65 947.185H1664.69C1667.68 947.185 1670.54 945.999 1672.66 943.888C1674.77 941.776 1675.95 938.913 1675.95 935.927V708.015C1675.95 706.537 1675.66 705.073 1675.1 703.707C1674.53 702.341 1673.7 701.1 1672.66 700.054C1671.61 699.009 1670.37 698.179 1669 697.614C1667.64 697.048 1666.17 696.757 1664.69 696.757Z" fill="#FF6363"/>
<path id="Vector_13" d="M1460.5 801.326C1474.31 801.326 1485.5 790.133 1485.5 776.326C1485.5 762.519 1474.31 751.326 1460.5 751.326C1446.69 751.326 1435.5 762.519 1435.5 776.326C1435.5 790.133 1446.69 801.326 1460.5 801.326Z" stroke="#D0CDE1" stroke-width="2" stroke-miterlimit="10"/>
<path id="Vector_14" d="M1452.5 810.326C1466.31 810.326 1477.5 799.133 1477.5 785.326C1477.5 771.519 1466.31 760.326 1452.5 760.326C1438.69 760.326 1427.5 771.519 1427.5 785.326C1427.5 799.133 1438.69 810.326 1452.5 810.326Z" fill="#D0CDE1"/>
<path id="Vector_15" d="M1145.45 953.223H1117.45V981.223H1145.45V953.223Z" fill="#D0CDE1"/>
<path id="Vector_16" d="M1128.45 931.223V965.223H1162.45V931.223H1128.45ZM1160.97 963.743H1129.92V932.703H1160.97V963.743Z" fill="#3F3D56"/>
<path id="Vector_17" d="M1793.45 953.223H1765.45V981.223H1793.45V953.223Z" fill="#D0CDE1"/>
<path id="Vector_18" d="M1776.45 931.223V965.223H1810.45V931.223H1776.45ZM1808.97 963.743H1777.92V932.703H1808.97V963.743Z" fill="#3F3D56"/>
<path id="Vector_19" d="M1131.58 522.113C1175.4 522.113 1210.92 486.591 1210.92 442.773C1210.92 398.954 1175.4 363.432 1131.58 363.432C1087.76 363.432 1052.24 398.954 1052.24 442.773C1052.24 486.591 1087.76 522.113 1131.58 522.113Z" fill="#FF6363"/>
<path id="Vector_20" d="M1159.23 348.49C1152.05 347.576 1144.77 347.576 1137.59 348.49C1121.59 350.591 1106.52 357.24 1094.18 367.647C1081.84 378.053 1072.75 391.781 1067.98 407.202C1065.81 414.229 1064.58 421.514 1064.32 428.864C1064.29 429.886 1064.26 430.92 1064.26 431.954C1064.28 454.265 1073.16 475.655 1088.93 491.431C1104.71 507.207 1126.1 516.08 1148.41 516.103C1150.2 516.103 1151.99 516.043 1153.76 515.934C1157.91 515.674 1162.03 515.103 1166.09 514.227C1185.5 510.055 1202.8 499.161 1214.95 483.468C1227.1 467.776 1233.31 448.295 1232.49 428.467C1231.67 408.638 1223.86 389.738 1210.46 375.104C1197.05 360.47 1178.91 351.044 1159.23 348.49H1159.23ZM1174.75 509.347H1174.74C1167.96 511.659 1160.91 513.062 1153.76 513.518C1151.99 513.638 1150.2 513.698 1148.41 513.698C1126.74 513.672 1105.96 505.051 1090.64 489.727C1075.31 474.402 1066.69 453.626 1066.67 431.954C1066.67 430.92 1066.69 429.886 1066.73 428.864C1067.55 407.744 1076.52 387.762 1091.74 373.101C1106.97 358.44 1127.27 350.237 1148.41 350.209C1167.78 350.21 1186.51 357.087 1201.28 369.613C1216.05 382.14 1225.9 399.503 1229.06 418.61C1232.22 437.716 1228.5 457.325 1218.55 473.942C1208.6 490.559 1193.08 503.106 1174.75 509.347H1174.75Z" fill="#3F3D56"/>
<path id="Vector_21" d="M1149.61 355.018H1147.21V371.847H1149.61V355.018Z" fill="#3F3D56"/>
<path id="Vector_22" d="M1094.86 376.702L1093.16 378.402L1105.06 390.302L1106.76 388.602L1094.86 376.702Z" fill="#3F3D56"/>
<path id="Vector_23" d="M1071.47 430.752V433.156H1088.3V430.752H1071.47Z" fill="#3F3D56"/>
<path id="Vector_24" d="M1093.16 485.506L1094.86 487.206L1106.76 475.305L1105.06 473.605L1093.16 485.506Z" fill="#3F3D56"/>
<path id="Vector_25" d="M1190.06 388.602L1191.76 390.302L1203.66 378.402L1201.96 376.702L1190.06 388.602Z" fill="#3F3D56"/>
<path id="Vector_26" d="M1208.52 430.752V433.156H1225.35V430.752H1208.52Z" fill="#3F3D56"/>
<path id="Vector_27" d="M1191.76 473.605L1190.06 475.305L1201.96 487.206L1203.66 485.506L1191.76 473.605Z" fill="#3F3D56"/>
<path id="Vector_28" d="M1149.61 492.06H1147.21V508.89H1149.61V492.06Z" fill="#3F3D56"/>
<path id="Vector_29" d="M1152.02 427.145C1150.98 426.365 1149.71 425.943 1148.41 425.943C1147.11 425.943 1145.84 426.365 1144.8 427.145C1144.09 427.686 1143.5 428.375 1143.08 429.165C1142.55 430.181 1142.32 431.329 1142.42 432.473C1142.52 433.616 1142.94 434.707 1143.64 435.617C1144.34 436.527 1145.29 437.218 1146.37 437.608C1147.45 437.998 1148.62 438.07 1149.74 437.817C1150.85 437.564 1151.88 436.996 1152.68 436.179C1153.49 435.363 1154.05 434.333 1154.29 433.211C1154.53 432.088 1154.44 430.921 1154.04 429.846C1153.64 428.771 1152.93 427.834 1152.02 427.145H1152.02ZM1148.41 435.56C1147.45 435.557 1146.54 435.176 1145.86 434.501C1145.19 433.825 1144.81 432.909 1144.8 431.954C1144.81 431.224 1145.03 430.513 1145.44 429.91C1145.79 429.4 1146.27 428.989 1146.83 428.718C1147.39 428.447 1148 428.324 1148.62 428.361C1149.24 428.398 1149.84 428.595 1150.36 428.931C1150.88 429.267 1151.31 429.732 1151.59 430.281C1151.88 430.83 1152.03 431.444 1152.01 432.064C1151.99 432.683 1151.81 433.288 1151.49 433.818C1151.17 434.349 1150.72 434.788 1150.18 435.094C1149.64 435.399 1149.03 435.559 1148.41 435.56V435.56Z" fill="#3F3D56"/>
<path id="Vector_30" d="M1159.23 327.369H1137.59V349.007H1159.23V327.369Z" fill="#3F3D56"/>
<path id="Vector_31" d="M1148.41 330.975C1164.34 330.975 1177.26 326.4 1177.26 320.757C1177.26 315.114 1164.34 310.539 1148.41 310.539C1132.48 310.539 1119.56 315.114 1119.56 320.757C1119.56 326.4 1132.48 330.975 1148.41 330.975Z" fill="#3F3D56"/>
<path id="arrow" d="M1152.02 386.273H1144.8V427.145H1152.02V386.273Z" fill="#3F3D56"/>
<path id="Vector_32" d="M1263 512.44H1037V514.844H1263V512.44Z" fill="#3F3D56"/>
<g id="plant left">
<g id="leaf left">
<g id="Group 1">
<path id="Vector_33" d="M1187.86 886.352C1188.79 918.302 1170.12 930.011 1146.7 930.695C1146.15 930.711 1145.61 930.721 1145.07 930.725C1143.98 930.733 1142.91 930.715 1141.84 930.67C1120.66 929.791 1103.88 918.543 1103.02 888.83C1102.12 858.08 1140.28 818.127 1143.15 815.172L1143.15 815.169C1143.26 815.056 1143.32 815 1143.32 815C1143.32 815 1186.93 854.405 1187.86 886.352Z" fill="#8BFF62"/>
</g>
</g>
<path id="Vector_34" d="M1145.01 925.853L1159.89 903.722L1145.04 928.234L1145.07 930.725C1143.98 930.733 1142.91 930.715 1141.84 930.67L1142.58 898.658L1142.56 898.411L1142.59 898.364L1142.66 895.339L1126.36 871.676L1142.64 893.075L1142.7 893.714L1143.26 869.528L1129.18 844.995L1143.3 865.279L1143.15 815.172L1143.15 815.005L1143.15 815.169L1144.09 854.66L1156.92 838.619L1144.13 858.062L1144.41 879.697L1156.22 858.583L1144.45 882.877L1144.61 894.907L1161.78 865.495L1144.66 899.103L1145.01 925.853Z" fill="#3F3D56"/>
</g>
<g id="plant right">
<g id="Group 2">
<path id="Vector_35" d="M1835.59 891.754C1836.53 923.704 1817.86 935.413 1794.43 936.097C1793.89 936.113 1793.34 936.123 1792.81 936.126C1791.72 936.135 1790.64 936.117 1789.58 936.072C1768.39 935.192 1751.62 923.945 1750.75 894.232C1749.85 863.482 1788.02 823.529 1790.88 820.574L1790.89 820.571C1791 820.458 1791.05 820.402 1791.05 820.402C1791.05 820.402 1834.66 859.807 1835.59 891.754Z" fill="#8BFF62"/>
<path id="Vector_36" d="M1792.74 931.255L1807.63 909.124L1792.77 933.636L1792.81 936.126C1791.72 936.135 1790.64 936.117 1789.58 936.072L1790.32 904.06L1790.3 903.813L1790.32 903.766L1790.39 900.741L1774.1 877.078L1790.37 898.477L1790.43 899.116L1790.99 874.93L1776.91 850.397L1791.03 870.681L1790.88 820.574L1790.88 820.407L1790.89 820.571L1791.82 860.062L1804.65 844.021L1791.86 863.464L1792.14 885.098L1803.95 863.984L1792.19 888.279L1792.34 900.308L1809.51 870.897L1792.4 904.505L1792.74 931.255Z" fill="#3F3D56"/>
</g>
</g>
</g>
</g>
<defs>
<linearGradient id="paint0_linear" x1="1905.97" y1="144.858" x2="1091.11" y2="574.622" gradientUnits="userSpaceOnUse">
<stop stop-color="#FF4040"/>
<stop offset="1" stop-color="#020067"/>
</linearGradient>
<clipPath id="clip0">
<rect width="798.627" height="689.223" fill="white" transform="translate(1037 292)"/>
</clipPath>
</defs>
</svg>
